Patient4_TMGait_0pt2_03_right_22_EMG.mot
version=1
nRows=36
nColumns=33
inDegrees=no
endheader
time	1LAddLong	2LGlutMax	3LGlutMed	4LIliopsoas	5LSemiMemb	6LBicFemLong	7LRecFem	8LVastMed	9LVastLat	10LGasMed	11LTibAnt	12lTibPost	13LPeroneusLong	14LSol	15LExtDigLong	16LFlexDigLong	17RAddLong	18RGlutMax	19RGlutMed	20RIliopsoas	21RSemiMemb	22RBicFemLong	23RRecFem	24RVastMed	25RVastLat	26RGasMed	27RTibAnt	28RTibPost	29RPeroneusLong	30RSol	31RExtDigLong	32RFlexDigLong
49.258	-0.012512	0.19226	0.13306	0.050049	0.021362	0.099945	0.12833	-0.016937	0.097504	-0.047913	0.010376	-0.012054	-0.048065	0.062714	0.00946	0.007782	-0.092468	-0.026245	-0.06012	0.13046	0.078278	0.046082	-0.085907	0.027924	0.023346	-0.027161	0.52994	-0.001068	0.11398	-0.1651	-0.001221	0.004425
49.259	-0.002289	0.25497	0.13321	0.012207	0.008087	0.10681	0.12222	0.006866	0.21316	-0.02594	0.008698	-0.000458	-0.16586	0.049744	-0.046997	0.018158	-0.047455	0.064545	0.27481	-0.069427	0.10071	-0.011139	-0.095978	0.016785	0.001526	-0.013428	0.22812	-0.005188	0.10574	-0.1355	-0.006104	-0.014343
49.26	0.003357	0.22003	0.13153	-0.010986	0.005493	-0.008087	-0.14801	0.063934	0.21988	-0.015411	-0.003967	0.004578	-0.053864	-0.14862	-0.10529	-0.00351	-0.015564	0.014343	0.10727	-0.057678	0.093842	-0.047302	-0.084839	-0.010223	0.000458	-0.010681	-0.089874	-0.003052	0.059662	-0.015564	0.011444	-0.009766
49.261	0.010223	0.13077	0.045929	-0.009613	0.012054	-0.066528	-0.33402	0.009003	0.30045	-0.00824	-0.005341	-0.00885	0.064697	-0.177	-0.078888	-0.027008	-0.031281	-0.072327	-0.54428	0.061798	0.021667	-0.038757	-0.078278	-0.005493	0.001831	-0.001831	-0.25253	-0.005798	0.27695	0.067444	-0.000305	-0.018463
49.262	0.027161	0.13611	0.078583	0.00473	0.018311	-0.005493	-0.345	-0.008698	0.38391	-0.021973	-0.006256	-0.002899	0.031891	-0.047302	0.025024	-0.000458	-0.014191	-0.12314	-0.51407	0.078278	-0.034637	-0.023804	-0.066833	-0.015106	-0.007935	0.006409	-0.072937	-0.006409	0.67841	-0.085754	-0.00061	-0.012817
49.263	0.04425	0.16281	0.077057	0.010071	0.02655	0.000916	-0.32928	-0.029755	0.40192	-0.021973	-0.00351	0.00473	-0.013885	0.04425	0.061951	-0.018463	-0.003052	-0.066223	-0.47409	0.039978	0.047302	0.012512	-0.10147	-0.024109	-0.015717	0.00946	0.054932	0.001068	0.401	-0.044708	0.005798	-0.016785
49.264	0.049133	0.1767	0.031128	0.00946	0.031891	0.000763	-0.31433	-0.050659	0.35004	-0.013885	-0.011749	0.002747	-0.013428	0.072479	0.037384	-0.003357	-0.006104	-0.055389	-0.39841	0.028992	0.20248	0.000153	-0.059204	-0.060883	-0.011139	0.00351	0.29327	-0.001831	-0.055237	0.025787	0.002594	-0.016785
49.265	0.044708	0.11765	-0.041199	0.003815	0.029144	-0.11948	-0.35523	-0.029755	0.3096	-0.001678	-0.009918	-0.001984	-0.030823	0.025787	-0.0177	-0.015259	0.019531	-0.019226	-0.39307	-0.007935	0.12894	-0.003662	-0.031738	-0.075073	-0.030212	0.00946	0.31448	0.000153	-0.2272	-0.038452	0.001221	-0.0177
49.266	0.036316	0.031433	-0.17258	0.005035	0.031281	-0.094299	-0.37766	-0.041199	0.28183	0.008087	-0.010986	0.008087	0.036163	0.008698	-0.026703	-0.030823	0.023651	0.024719	-0.38193	-0.085907	0.06958	-0.026855	-0.047302	-0.10086	-0.029907	0.014343	0.27771	0.010681	-0.14297	0.031891	-0.002136	-0.021362
49.267	0.024872	-0.052338	-0.27679	0.001526	0.020599	-0.004425	-0.26337	-0.0383	0.14313	-0.002289	-0.003357	0.00824	0.084686	0.013733	-0.054779	-0.03418	0.030212	-0.033569	-0.51117	-0.0737	0.053711	-0.021667	-0.023499	-0.088501	-0.028381	0.020905	0.13382	-0.000153	0.11765	-0.014648	0	-0.019073
49.268	0.009308	-0.043793	-0.24979	-0.01358	0.011139	0.045319	-0.008545	-0.034485	-0.11108	0.003357	-0.001678	0.013428	0.1001	0.022278	-0.072632	-0.037231	0.024872	-0.007629	-0.35233	-0.030212	0.051575	-0.020447	-0.019531	-0.069885	-0.035553	0.014954	0.007172	-0.001984	0.14557	-0.065765	0.000763	-0.033875
49.269	0.014954	-0.084076	-0.29755	-0.007172	0.012207	0.099945	0.13214	-0.021057	-0.38498	0.008392	0.05188	0.014038	0.14832	0.07843	0.038147	-0.019684	0.014191	0.007477	-0.001526	-0.073242	0.034943	-0.027771	0.018311	-0.1059	-0.021057	0.006866	0.31967	0	0.089874	-0.095978	0	-0.017853
49.27	0.004578	-0.058899	-0.068665	0.000458	0.015717	0.053864	0.1506	-0.010529	-0.48416	0.011749	0.023956	0.012207	0.098114	-0.002289	0.027008	-0.006256	0.018616	0.004883	-0.030365	-0.11673	0.034027	-0.036926	0.015564	-0.1152	-0.005951	0.006409	0.63568	-0.002136	-0.033264	-0.083923	-0.004578	-0.014038
49.271	0.019836	-0.097198	0.038147	0.024872	0.009003	0.015259	0.082092	0.004272	-0.33066	-0.013123	-0.033569	0.01358	-0.045776	0.03952	0.090942	-0.011139	0.003967	0.016022	-0.159	-0.10315	0.024567	-0.021515	0.006714	-0.11719	-0.016785	0.002441	0.61829	-0.003815	0.01358	-0.027924	-0.001678	-0.018005
49.272	0.012054	-0.11917	0.042419	0.07019	0.007477	0.006409	0.14343	0.013733	-0.13077	-0.035248	-0.030823	0.012054	-0.16144	0.076904	0.091705	-0.004883	0.007782	-0.036163	-0.25574	0.0354	0.033264	-0.016785	-0.00824	-0.11063	-0.009766	0.007629	0.077972	0.000763	0.077057	-0.085297	0.00061	-0.017242
49.273	0.011444	-0.025177	-0.001068	0.003204	0.012054	-0.011749	0.18051	-0.005341	-0.048065	-0.011597	-0.003204	0.018768	-0.35812	0.001678	0.044556	0.004425	0.018921	-0.036774	-0.20889	0.22217	0.025024	-0.006714	-0.002899	-0.13031	0.006409	0.011597	-0.69702	-0.002594	0.11658	-0.12543	-0.003052	-0.012665
49.274	0.018005	0.050964	0.09201	-0.011597	0.012207	0.042419	0.099945	0.002136	-0.067139	0.007172	0.00351	0.010223	-0.06012	-0.032806	0.011292	0.004272	0.008698	-0.080719	-0.11444	0.30395	0.028992	0.000458	-0.011902	-0.095367	0.007019	0.012665	-0.82871	-0.006866	0.15228	-0.11169	-0.001984	-0.014343
49.275	0.011292	0.014038	-0.02533	-0.001831	0.010223	0.068207	0.019989	0.02182	-0.10666	0.019379	0.007782	0.016632	-0.035706	-0.066528	0.008545	0.016479	0.001526	-0.077667	-0.050507	0.23117	0.027924	0.014496	-0.023041	-0.10956	0.010223	0.01709	-0.70007	-0.001831	0.29495	-0.089569	-0.003967	-0.015564
49.276	0.005035	0.053253	-0.16281	0.036469	0.005951	0.13031	0.009308	0.02121	-0.070343	0.018768	0.017853	0.011139	0.67917	-0.052338	0.064392	0.011292	0.032043	-0.069885	-0.35751	0.17395	0.03479	0.00824	-0.028534	-0.09491	0.006104	0.017548	-0.51193	-0.007477	0.17944	-0.010071	0.000916	-0.022125
49.277	0.010223	0.0737	0.090637	0.008698	0.019531	0.10346	-0.02594	0.018463	0.01358	0.040741	0.012512	0.011597	0.5986	0.0354	0.084229	0.015259	0.038605	-0.003204	-0.42633	0.12238	0.075073	-0.016022	-0.028381	-0.048523	-0.012665	0.019073	-0.33112	-0.002289	-0.086517	0.026245	-0.001068	-0.020905
49.278	0.010529	0.056458	0.16602	0.005951	0.006409	0.12894	0.029449	0.013885	0.025635	0.020905	0.011444	0.014954	-0.20569	0.0914	0.061188	0.023041	0.037384	-0.075989	-0.42404	0.09552	0.071869	0.005035	0.005646	-0.12024	-0.019073	0.020142	-0.1503	-0.001526	-0.00946	0.092926	-0.001831	-0.022278
49.279	0.007172	-0.070648	0.094299	-0.004425	0.018005	0.12466	0.077667	0.027466	0.067139	0.011444	-0.031128	0.019379	-0.65964	0.097198	0.014954	0.010681	0.049591	-0.13092	-0.14923	-0.037537	-0.048523	0.017395	0.026245	-0.11871	-0.006714	0.014648	0.3244	-0.005493	0.19379	0.10651	0.001526	-0.023499
49.28	-0.002441	-0.090637	-0.028839	0.006866	0.005035	0.01236	0.014648	0.040588	0.18539	-0.093994	-0.037994	0.016174	-0.18921	0.065002	-0.029755	0.026855	0.071716	-0.11566	-0.11276	-0.01358	0.033417	-0.039673	0.030212	-0.097504	-0.038452	0.009155	0.19867	-0.002136	0.062866	0.03952	-0.000305	-0.031738
49.281	0.011444	-0.052338	-0.0914	-0.00061	-0.002289	-0.12177	-0.10819	0.005798	0.35797	-0.061951	-0.038147	0.009918	-0.14862	0.17807	0.037689	0.029602	0.09201	-0.04303	0.037384	0.019073	0.037994	-0.029907	-0.01358	-0.094452	-0.010834	0.011597	0.23086	-0.008392	-0.049438	0.000458	0.002441	-0.033722
49.282	0.005035	-0.016785	0.01236	0.003204	0.000458	-0.063629	-0.18784	0.002899	0.38422	-0.024719	-0.05661	0.014343	0.15488	0.050964	0.006866	0.029297	0.047913	0.002441	0.43121	-0.087738	-0.046692	0.056152	-0.013275	-0.10101	-0.005188	0.007172	0.14771	-0.002289	-0.053864	-0.048676	0.005188	-0.034485
49.283	0.006866	0.005646	0.037842	0.005188	-0.003967	-0.015411	-0.14374	0.01358	0.36346	0.005798	-0.02182	0.013733	-0.15732	0.031586	0.052185	0.02243	0.034637	0.055237	0.50568	-0.16724	-0.03418	0.050964	-0.027924	-0.075684	0.006561	0.009155	0.31601	-0.005646	0.18631	-0.084991	-0.002747	-0.043182
49.284	-0.000305	-0.047455	0.095673	0.009613	-0.00061	0.074158	-0.050507	0.020905	0.29022	-0.007782	0.019684	0.01236	0.12253	0.13657	0.04364	0.020599	0.008392	-0.050812	-0.47348	-0.046539	-0.046539	0.0177	-0.046387	-0.095367	0.012665	0.017395	0.29953	-0.001373	0.35416	-0.16327	0.001068	-0.050354
49.285	-0.003357	-0.085754	0.04425	0.01297	-0.007324	0.02243	-0.018158	0.023041	0.21072	0.015259	0.028534	0.012665	0.15579	-0.070953	-0.052338	0.03891	0.026703	-0.10788	-0.63385	-0.059662	-0.098572	0.028534	-0.020447	-0.094452	0.032806	0.023346	0.01297	-0.002136	-0.063934	-0.19745	-0.000305	-0.01709
49.286	-0.007477	-0.10666	0.045624	0.020142	-0.001678	-0.007172	-0.007172	0.004272	0.034485	-0.001068	0.011597	0.019379	0.00351	-0.09079	-0.11765	0.041809	0.070801	-0.15442	-0.52155	-0.025482	-0.16937	0.055695	-0.03006	-0.095978	0.025787	0.032349	-0.1622	-0.001678	-0.000763	-0.20599	-0.002899	-0.006561
49.287	0.003052	-0.085602	-0.089111	-0.007782	-0.001373	0.068817	0.037079	-0.021057	-0.23499	-0.021057	0.042267	0.014343	0.093994	-0.019226	-0.32928	0.028534	0.067444	-0.12451	0.34409	-0.052185	-0.26581	0.051117	-0.016479	-0.064545	0.034332	0.028534	-0.49408	-0.000305	-0.22507	-0.14221	-0.002289	-0.007935
49.288	-0.020142	-0.05722	-0.10819	-0.022125	0.033417	0.11047	0.15335	-0.005493	-0.48355	-0.047455	0.02182	0.016785	0.10452	0.11581	-0.27252	0.041046	0.039673	-0.112	-0.013885	0.002747	-0.31677	0.073242	-0.027008	-0.061188	0.056	0.010529	0.16419	-0.002899	-0.51178	-0.039978	-0.000916	-0.016327
49.289	-0.010681	-0.11551	-0.066986	0.011444	0.011444	0.054626	0.11246	0.030365	-0.48523	-0.046387	0.076447	0.017395	0.067444	0.10803	-0.12482	0.038147	-0.023346	-0.087128	-0.19898	0.006714	-0.34729	0.17242	-0.004578	-0.092621	0.050201	0.012207	0.39963	-0.006256	-0.15991	0.039978	0.00061	-0.020447
49.29	-0.00473	-0.11063	-0.048828	0.005493	0.005035	-0.059204	-0.091248	0.034027	-0.35538	-0.032654	0.054016	0.018463	0.079651	0.087128	0.023956	0.03418	-0.13412	-0.1297	-0.11704	0.004425	0.007629	0.20325	-0.020599	-0.022583	0.054474	0.016632	0.073242	-0.003052	-0.004272	0.06958	-0.002289	-0.030823
49.291	-0.010071	-0.005646	0.072021	0.019226	0.003967	0.011597	-0.38818	0.054626	-0.17777	-0.017242	0.03479	0.019073	0.19424	0.034332	0.29724	0.035095	-0.21423	-0.071259	-0.081787	0.032654	0.56046	0.15289	-0.042725	0.044708	0.084991	0.023956	-0.23926	-0.005341	0.36804	0.03891	-0.001373	-0.036774
49.292	-0.013123	0.061798	0.12482	0.022888	-0.004425	0.047455	-0.43594	0.040283	-0.082092	0.029297	-0.05188	0.016174	0.22369	0.07782	0.25879	0.02243	-0.19531	-0.024109	-0.091705	-0.032959	0.44266	0.097351	-0.00412	0.054932	0.055542	0.028229	-0.32852	-0.005035	0.37949	0.081329	-0.003815	-0.053406
49.293	-0.00061	0.068817	0.009308	0.011902	-0.002136	0.082855	-0.33188	0.035858	0.001831	0.015106	-0.12177	0.014496	0.12802	0.074005	0.053558	0.048828	-0.16281	-0.096436	0.057526	-0.028076	0.20065	0.03418	0.00473	0.006561	0.044861	0.012665	-0.289	-0.008392	-0.14755	0.045929	0.000153	-0.054016
